HIERARCHY
ROOT hips
{
  OFFSET 0 10.6860622 2.3727825e-15
  CHANNELS 6 Xposition Yposition Zposition Yrotation Xrotation Zrotation
  JOINT leftUpperLeg
  {
    OFFSET 0.6642549969 -0.9402397400000004 0
    CHANNELS 3 Yrotation Xrotation Zrotation
    JOINT leftLowerLeg
    {
      OFFSET 0 -3.997221335632195 0
      CHANNELS 3 Yrotation Xrotation Zrotation
      JOINT leftFoot
      {
        OFFSET -0.13777839790000004 -4.6145792000000005 -0.22186036399999998
        CHANNELS 3 Yrotation Xrotation Zrotation
        JOINT leftToes
        {
          OFFSET -0.03777410834999995 -0.9130806927000008 0.85230013
          CHANNELS 3 Yrotation Xrotation Zrotation
          End Site
          {
            OFFSET -0.03777410834999995 -0.9130806927000008 0.85230013
          }
        }
      }
    }
  }
  JOINT rightUpperLeg
  {
    OFFSET -0.6642778626 -0.9402397400000004 0
    CHANNELS 3 Yrotation Xrotation Zrotation
    JOINT rightLowerLeg
    {
      OFFSET 0 -3.997221452859387 0
      CHANNELS 3 Yrotation Xrotation Zrotation
      JOINT rightFoot
      {
        OFFSET 0.1377926176 -4.6145792000000005 -0.22185782299999995
        CHANNELS 3 Yrotation Xrotation Zrotation
        JOINT rightToes
        {
          OFFSET 0.037780746850000047 -0.9130806927000008 0.85230167
          CHANNELS 3 Yrotation Xrotation Zrotation
          End Site
          {
            OFFSET 0.037780746850000047 -0.9130806927000008 0.85230167
          }
        }
      }
    }
  }
  JOINT spine
  {
    OFFSET 0 0.13988381660000015 0
    CHANNELS 3 Yrotation Xrotation Zrotation
    JOINT chest
    {
      OFFSET 0 0.6191039003973773 0
      CHANNELS 3 Yrotation Xrotation Zrotation
      JOINT upperChest
      {
        OFFSET 0 0.9855186130586943 0
        CHANNELS 3 Yrotation Xrotation Zrotation
        JOINT leftShoulder
        {
          OFFSET 0.1807663869 1.5087829790000005 0
          CHANNELS 3 Yrotation Xrotation Zrotation
          JOINT leftUpperArm
          {
            OFFSET 0.5985063006419806 0 0
            CHANNELS 3 Yrotation Xrotation Zrotation
            JOINT leftLowerArm
            {
              OFFSET 2.2993332369501065 0 0
              CHANNELS 3 Yrotation Xrotation Zrotation
              JOINT leftHand
              {
                OFFSET 2.395047042602395 0 0
                CHANNELS 3 Yrotation Xrotation Zrotation
                JOINT leftIndexProximal
                {
                  OFFSET 0.5766295810000004 0.04556643899499946 0.17265095988184
                  CHANNELS 3 Yrotation Xrotation Zrotation
                  JOINT leftIndexIntermediate
                  {
                    OFFSET 0.2957229000000008 -0.019352197700001517 -0.007932640616999987
                    CHANNELS 3 Yrotation Xrotation Zrotation
                    JOINT leftIndexDistal
                    {
                      OFFSET 0.19008243099999922 -0.012484908149998475 -0.002786250786000012
                      CHANNELS 3 Yrotation Xrotation Zrotation
                      End Site
                      {
                        OFFSET 0.19008243099999922 -0.012484908149998475 -0.002786250786000012
                      }
                    }
                  }
                }
                JOINT leftMiddleProximal
                {
                  OFFSET 0.5834975091000001 0.0524350405149987 0.02204081888183999
                  CHANNELS 3 Yrotation Xrotation Zrotation
                  JOINT leftMiddleIntermediate
                  {
                    OFFSET 0.33880573540000003 -0.019871473270000717 -0.00000971183179999946
                    CHANNELS 3 Yrotation Xrotation Zrotation
                    JOINT leftMiddleDistal
                    {
                      OFFSET 0.20676022730000088 -0.012221336379999448 0.0001471936708000235
                      CHANNELS 3 Yrotation Xrotation Zrotation
                      End Site
                      {
                        OFFSET 0.20676022730000088 -0.012221336379999448 0.0001471936708000235
                      }
                    }
                  }
                }
                JOINT leftLittleProximal
                {
                  OFFSET 0.5344154683999995 -0.012880921405001189 -0.24414037221816004
                  CHANNELS 3 Yrotation Xrotation Zrotation
                  JOINT leftLittleIntermediate
                  {
                    OFFSET 0.21758961730000093 -0.011650919939999227 0.011893592810000034
                    CHANNELS 3 Yrotation Xrotation Zrotation
                    JOINT leftLittleDistal
                    {
                      OFFSET 0.1475273964999999 -0.008152365682999818 0.006001092492999946
                      CHANNELS 3 Yrotation Xrotation Zrotation
                      End Site
                      {
                        OFFSET 0.1475273964999999 -0.008152365682999818 0.006001092492999946
                      }
                    }
                  }
                }
                JOINT leftRingProximal
                {
                  OFFSET 0.5799399463000003 0.026911854694997794 -0.12150566991816003
                  CHANNELS 3 Yrotation Xrotation Zrotation
                  JOINT leftRingIntermediate
                  {
                    OFFSET 0.26167887460000006 -0.013480186499999602 0.010996293000000053
                    CHANNELS 3 Yrotation Xrotation Zrotation
                    JOINT leftRingDistal
                    {
                      OFFSET 0.17667108799999987 -0.008990287899999228 0.0055541023999999065
                      CHANNELS 3 Yrotation Xrotation Zrotation
                      End Site
                      {
                        OFFSET 0.17667108799999987 -0.008990287899999228 0.0055541023999999065
                      }
                    }
                  }
                }
                JOINT leftThumbProximal
                {
                  OFFSET 0.11018806699999972 -0.09448718900500053 0.17047963138184
                  CHANNELS 3 Yrotation Xrotation Zrotation
                  JOINT leftThumbIntermediate
                  {
                    OFFSET 0.31062601459999983 -0.08126270900000132 0.15443142000000007
                    CHANNELS 3 Yrotation Xrotation Zrotation
                    JOINT leftThumbDistal
                    {
                      OFFSET 0.21627175790000086 -0.08833193599999878 0.018771167799999988
                      CHANNELS 3 Yrotation Xrotation Zrotation
                      End Site
                      {
                        OFFSET 0.21627175790000086 -0.08833193599999878 0.018771167799999988
                      }
                    }
                  }
                }
              }
            }
          }
        }
        JOINT neck
        {
          OFFSET 0 1.5463305265074576 0
          CHANNELS 3 Yrotation Xrotation Zrotation
          JOINT head
          {
            OFFSET 0 0.8456443600000344 0
            CHANNELS 3 Yrotation Xrotation Zrotation
            JOINT leftEye
            {
              OFFSET 0.30408573140000006 0.5104519199999995 0.1276382305
              CHANNELS 3 Yrotation Xrotation Zrotation
              End Site
              {
                OFFSET 0.30408573140000006 0.5104519199999995 0.1276382305
              }
            }
            JOINT rightEye
            {
              OFFSET -0.30409491089999996 0.5104519199999995 0.1276379445
              CHANNELS 3 Yrotation Xrotation Zrotation
              End Site
              {
                OFFSET -0.30409491089999996 0.5104519199999995 0.1276379445
              }
            }
            JOINT jaw
            {
              OFFSET -3.155239131000001e-7 -0.11984121820000082 0.60178107
              CHANNELS 3 Yrotation Xrotation Zrotation
              End Site
              {
                OFFSET -3.155239131000001e-7 -0.11984121820000082 0.60178107
              }
            }
          }
        }
        JOINT rightShoulder
        {
          OFFSET -0.1807303465 1.5087829790000005 0
          CHANNELS 3 Yrotation Xrotation Zrotation
          JOINT rightUpperArm
          {
            OFFSET -0.5985063796536958 0 0
            CHANNELS 3 Yrotation Xrotation Zrotation
            JOINT rightLowerArm
            {
              OFFSET -2.2993322059002854 0 0
              CHANNELS 3 Yrotation Xrotation Zrotation
              JOINT rightHand
              {
                OFFSET -2.395045314457259 0 0
                CHANNELS 3 Yrotation Xrotation Zrotation
                JOINT rightIndexProximal
                {
                  OFFSET -0.5764487688300002 0.0441371204405987 0.17361932004999997
                  CHANNELS 3 Yrotation Xrotation Zrotation
                  JOINT rightIndexIntermediate
                  {
                    OFFSET -0.29573011380000047 -0.01934826376999843 -0.007698921482999974
                    CHANNELS 3 Yrotation Xrotation Zrotation
                    JOINT rightIndexDistal
                    {
                      OFFSET -0.19008373999999884 -0.012503266380000655 -0.0026365778999999897
                      CHANNELS 3 Yrotation Xrotation Zrotation
                      End Site
                      {
                        OFFSET -0.19008373999999884 -0.012503266380000655 -0.0026365778999999897
                      }
                    }
                  }
                }
                JOINT rightMiddleProximal
                {
                  OFFSET -0.5834852037300005 0.05211639405060153 0.02307162440000001
                  CHANNELS 3 Yrotation Xrotation Zrotation
                  JOINT rightMiddleIntermediate
                  {
                    OFFSET -0.33880114510000003 -0.019952774050000954 0.0002455003561999819
                    CHANNELS 3 Yrotation Xrotation Zrotation
                    JOINT rightMiddleDistal
                    {
                      OFFSET -0.20675694929999955 -0.012273788999999091 0.00030209124000002766
                      CHANNELS 3 Yrotation Xrotation Zrotation
                      End Site
                      {
                        OFFSET -0.20675694929999955 -0.012273788999999091 0.00030209124000002766
                      }
                    }
                  }
                }
                JOINT rightLittleProximal
                {
                  OFFSET -0.5346811737299992 -0.011214256288399227 -0.24363941305000003
                  CHANNELS 3 Yrotation Xrotation Zrotation
                  JOINT rightLittleIntermediate
                  {
                    OFFSET -0.21757715980000092 -0.011771559690000988 0.01201554387
                    CHANNELS 3 Yrotation Xrotation Zrotation
                    JOINT rightLittleDistal
                    {
                      OFFSET -0.1475201849000004 -0.00822055339600003 0.006082065407000015
                      CHANNELS 3 Yrotation Xrotation Zrotation
                      End Site
                      {
                        OFFSET -0.1475201849000004 -0.00822055339600003 0.006082065407000015
                      }
                    }
                  }
                }
                JOINT rightRingProximal
                {
                  OFFSET -0.5800810755299999 0.027657985680600072 -0.12066365025000003
                  CHANNELS 3 Yrotation Xrotation Zrotation
                  JOINT rightRingIntermediate
                  {
                    OFFSET -0.26166445029999974 -0.013623118409999302 0.011164098990000045
                    CHANNELS 3 Yrotation Xrotation Zrotation
                    JOINT rightRingDistal
                    {
                      OFFSET -0.17666387530000027 -0.009072900100000503 0.005668185599999959
                      CHANNELS 3 Yrotation Xrotation Zrotation
                      End Site
                      {
                        OFFSET -0.17666387530000027 -0.009072900100000503 0.005668185599999959
                      }
                    }
                  }
                }
                JOINT rightThumbProximal
                {
                  OFFSET -0.10997596379000074 -0.09577489355940072 0.16989765924999997
                  CHANNELS 3 Yrotation Xrotation Zrotation
                  JOINT rightThumbIntermediate
                  {
                    OFFSET -0.31036620999999986 -0.08229339117999834 0.15440884469999996
                    CHANNELS 3 Yrotation Xrotation Zrotation
                    JOINT rightThumbDistal
                    {
                      OFFSET -0.21631306399999906 -0.08825326400000111 0.018656797720000014
                      CHANNELS 3 Yrotation Xrotation Zrotation
                      End Site
                      {
                        OFFSET -0.21631306399999906 -0.08825326400000111 0.018656797720000014
                      }
                    }
                  }
                }
              }
            }
          }
        }
      }
    }
  }
}
MOTION
Frames: 6
Frame Time: 0.03333333333333333
0.1346301259557403 -6.909327718394957 0.06650867839873104 -180 -2.998826955961147 -3.675861237390397e-16 -50.001195862478966 22.896134982126533 36.95607619383553 151.58118606462722 46.583932134180635 115.3564442901103 -74.52167022688667 37.65400231464114 -34.192809226200424 0 0 0 50.22977900172604 21.02417626886273 -35.61972988943359 -153.54041451515735 45.96010838437498 -118.00224699579698 71.83281287399251 36.70526831844776 33.02464168352038 0 0 0 -1.6679045884802994 -16.934135728913073 -0.7736823690881739 -0.8271520569302987 -2.873985382586381 -0.5375611947286107 0 0 0 -16.353785188448803 -1.2580133870795807 -15.971515784442895 83.5365264602803 -25.71276874011001 -103.76358275271285 24.94833393614229 74.59489737979946 -4.172228861521449 21.88082878244556 -8.013804598880883 10.880380741383801 0 0 0 0 0 0 0 0 0 0 0 0 0 0 0 0 0 0 0 0 0 0 0 0 0 0 0 0 0 0 0 0 0 0 0 0 0 0 0 0 0 0 0 0 0 0 -6.984578256375495 0 0 -9.121347078821147 0 0 0 0 0 0 0 0 0 0 -22.549309033954916 -7.320391181866531 -1.5742599155762615 -86.31146322493954 -30.534612772680266 61.815402702735994 -40.27005099250093 73.66924733700556 11.99981842899831 -5.997564929564407 10.700638939960998 -46.60539039883683 0 0 0 0 0 0 0 0 0 0 0 0 0 0 0 0 0 0 0 0 0 0 0 0 0 0 0 0 0 0 0 0 0 0 0 0 0 0 0 0 0 0 0 0 0
0.1346301259557403 -6.891954955065585 0.05643135378800178 -180 -2.998826955961147 -3.675861237390397e-16 -50.06976078816265 22.782520437553 36.75019570263758 151.3728635413289 46.6320426866952 115.06797496147078 -74.43098065966643 37.688786260324974 -34.3799588451564 0 0 0 50.28316235573774 20.917782089081932 -35.42052528988822 -153.33301112338935 46.01643143213628 -117.71168259101893 71.74846113368723 36.74859322699697 33.203631869614824 0 0 0 -1.6679045884802994 -16.934135728913073 -0.7736823690881739 -0.8271520569302987 -2.873985382586381 -0.5375611947286107 0 0 0 -16.35596627593205 -1.339634421049862 -15.816282192798967 83.5365264602803 -25.71276874011001 -103.76358275271285 25.615239482467267 74.60814462300421 -3.64269050227135 22.49810775573589 -7.988070663368654 10.453199964706386 0 0 0 0 0 0 0 0 0 0 0 0 0 0 0 0 0 0 0 0 0 0 0 0 0 0 0 0 0 0 0 0 0 0 0 0 0 0 0 0 0 0 0 0 0 0 -5.779787267900031 0 0 -9.121347078821147 0 0 0 0 0 0 0 0 0 0 -22.798765936747646 -7.244000884178329 -1.087694737201629 -86.22604180504828 -30.707042871328532 61.88276191660779 -39.447590852923305 73.6190642466369 12.036958144476683 -5.997564929564407 10.700638939960998 -46.60539039883683 0 0 0 0 0 0 0 0 0 0 0 0 0 0 0 0 0 0 0 0 0 0 0 0 0 0 0 0 0 0 0 0 0 0 0 0 0 0 0 0 0 0 0 0 0
0.1346301259557403 -6.874581386559401 0.046354029177272514 -180 -2.998826955961147 -3.675861237390397e-16 -50.13781487557431 22.668672898519265 36.54462751962303 151.1640159941677 46.679424496610466 114.77900165016617 -74.3403804660705 37.72381967867732 -34.567107873766865 0 0 0 50.33609970878582 20.811191186408724 -35.22155514820558 -153.12497816822537 46.07205381420829 -117.4205279067769 71.66420028270174 36.79212598627258 33.3826108173307 0 0 0 -1.6679045884802994 -16.934135728913073 -0.7736823690881739 -0.8271520569302987 -2.873985382586381 -0.5375611947286107 0 0 0 -16.358364420471254 -1.4212467514713105 -15.661033309263795 83.5365264602803 -25.71276874011001 -103.76358275271285 26.28307343095696 74.61974187510661 -3.112210121733565 23.11503326568825 -7.957783119385085 10.026418607429015 0 0 0 0 0 0 0 0 0 0 0 0 0 0 0 0 0 0 0 0 0 0 0 0 0 0 0 0 0 0 0 0 0 0 0 0 0 0 0 0 0 0 0 0 0 0 -4.572707361388775 0 0 -9.121347078821147 0 0 0 0 0 0 0 0 0 0 -23.04750380591911 -7.165519617152892 -0.6015950092362927 -86.14071068857908 -30.87953103767062 61.94993566466403 -38.62785005752811 73.56874047693924 12.071422860465043 -5.997564929564407 10.700638939960998 -46.60539039883683 0 0 0 0 0 0 0 0 0 0 0 0 0 0 0 0 0 0 0 0 0 0 0 0 0 0 0 0 0 0 0 0 0 0 0 0 0 0 0 0 0 0 0 0 0
0.1346301259557403 -6.857208354837757 0.03627670456654326 -180 -2.998826955961147 -3.675861237390397e-16 -50.20537747242069 22.55463132537679 36.33940738825789 150.954640462358 46.72608564230878 114.48953785327701 -74.24990895502074 37.75907701883655 -34.75429236946754 0 0 0 50.38861442464631 20.704456548128274 -35.02284819322777 -152.9163408515395 46.12691926061762 -117.12879213050162 71.58007735952378 36.835866975772646 33.56161758432394 0 0 0 -1.6679045884802994 -16.934135728913073 -0.7736823690881739 -0.8271520569302987 -2.873985382586381 -0.5375611947286107 0 0 0 -16.360992093846765 -1.5028531052441862 -15.505784624807802 83.5365264602803 -25.71276874011001 -103.76358275271285 26.951730603263737 74.62971126084861 -2.5809067959383234 23.7315346280289 -7.922957623507259 9.600119948151846 0 0 0 0 0 0 0 0 0 0 0 0 0 0 0 0 0 0 0 0 0 0 0 0 0 0 0 0 0 0 0 0 0 0 0 0 0 0 0 0 0 0 0 0 0 0 -3.363596278930828 0 0 -9.121347078821147 0 0 0 0 0 0 0 0 0 0 -23.29548911795171 -7.084961224473582 -0.11598668576451326 -86.0554615853185 -31.052123002368916 62.016933480221056 -37.81087238977148 73.51830131722929 12.103247530756345 -5.997564929564407 10.700638939960998 -46.60539039883683 0 0 0 0 0 0 0 0 0 0 0 0 0 0 0 0 0 0 0 0 0 0 0 0 0 0 0 0 0 0 0 0 0 0 0 0 0 0 0 0 0 0 0 0 0
0.1346301259557403 -6.839835054723845 0.026199379955813985 -180 -2.998826955961147 -3.675861237390397e-16 -50.27243525076741 22.44035325771718 36.13449057628563 150.74473513782144 46.77204921502572 114.19958010057033 -74.15952523956177 37.79456293610252 -34.941467784720544 0 0 0 50.44069609362234 20.597545273536788 -34.82438147003721 -152.70710242094495 46.18104528836965 -116.83649059463887 71.49610509220331 36.87981657827183 33.74066814619098 0 0 0 -1.6679045884802994 -16.934135728913073 -0.7736823690881739 -0.8271520569302987 -2.873985382586381 -0.5375611947286107 0 0 0 -16.3638329467274 -1.5844492700114934 -15.350529832822303 83.5365264602803 -25.71276874011001 -103.76358275271285 27.621089459857178 74.63802390529216 -2.04888669923237 24.34751894270095 -7.8836073834242555 9.174390539849155 0 0 0 0 0 0 0 0 0 0 0 0 0 0 0 0 0 0 0 0 0 0 0 0 0 0 0 0 0 0 0 0 0 0 0 0 0 0 0 0 0 0 0 0 0 0 -2.15272531346914 0 0 -9.121347078821147 0 0 0 0 0 0 0 0 0 0 -23.542689312612936 -7.002333093107982 0.36909808088110296 -85.97028625117329 -31.224796938520694 62.08375145321111 -36.99673886395349 73.46774775566817 12.132424613066107 -5.997564929564407 10.700638939960998 -46.60539039883683 0 0 0 0 0 0 0 0 0 0 0 0 0 0 0 0 0 0 0 0 0 0 0 0 0 0 0 0 0 0 0 0 0 0 0 0 0 0 0 0 0 0 0 0 0
0.1346301259557403 -6.822462023002202 0.016121786952813418 -180 -2.998826955961147 -3.675861237390397e-16 -50.33899097293442 22.32585359419757 35.9298972910517 150.5343339578388 46.817243591383004 113.9091296820028 -74.06924149901778 37.83029074498556 -35.12865153323953 0 0 0 50.49233161392025 20.490468300335323 -34.626173994149724 -152.49727744703787 46.23441988659924 -116.54364045042705 71.4122577361543 36.92397517985145 33.9197228681107 0 0 0 -1.6679045884802994 -16.934135728913073 -0.7736823690881739 -0.8271520569302987 -2.873985382586381 -0.5375611947286107 0 0 0 -16.366898494677955 -1.6660364777653642 -15.195265195445076 83.5365264602803 -25.71276874011001 -103.76358275271285 28.29100299601092 74.64469007952373 -1.5163117392478471 24.96289635954175 -7.839744016127352 8.749315062917391 0 0 0 0 0 0 0 0 0 0 0 0 0 0 0 0 0 0 0 0 0 0 0 0 0 0 0 0 0 0 0 0 0 0 0 0 0 0 0 0 0 0 0 0 0 0 -0.9403614031484753 0 0 -9.121347078821147 0 0 0 0 0 0 0 0 0 0 -23.78907849888152 -6.917649057713982 0.8536320174289973 -85.88520344493435 -31.39753486304039 62.150383713171685 -36.185483533211155 73.41711666805274 12.159006114136687 -5.997564929564407 10.700638939960998 -46.60539039883683 0 0 0 0 0 0 0 0 0 0 0 0 0 0 0 0 0 0 0 0 0 0 0 0 0 0 0 0 0 0 0 0 0 0 0 0 0 0 0 0 0 0 0 0 0
